<svg width="233" height="68" viewBox="0 0 233 68" fill="none" xmlns="http://www.w3.org/2000/svg">
<path fill-rule="evenodd" clip-rule="evenodd" d="M38.6231 67.7571C37.7356 67.7571 36.8777 67.4374 36.2065 66.8568C33.848 64.8157 28.2977 60.0134 28.2977 60.0134L33.2753 55.7067C33.2753 55.7067 38.2567 60.0171 39.4291 61.0315C39.5872 61.168 39.7891 61.2434 39.9981 61.2434C41.4235 61.2434 47.0669 61.2434 47.0669 61.2434V32.0023C47.0669 22.8276 40.9089 15.0796 32.5033 12.6701C30.2725 12.0289 28.3209 10.6593 26.9598 8.77912L26.9593 8.77939C25.5982 10.6596 23.6463 12.0295 21.4155 12.6704C13.01 15.0796 6.85163 22.8276 6.85163 32.0023V61.2434H13.8533C14.0621 61.2434 14.2643 61.168 14.422 61.0315C15.742 59.8893 21.9482 54.5192 21.9482 54.5192L13.4637 47.1779C12.3354 46.2014 11.6409 44.8165 11.5333 43.3283C11.3368 40.6064 11.0377 36.4651 11.0377 36.4651L26.9256 50.2125L42.8137 36.4651C42.8137 36.4651 42.5147 40.6064 42.3178 43.3283C42.2105 44.8165 41.5161 46.2014 40.3875 47.1779C35.4456 51.4541 21.5614 63.4677 17.6446 66.8568C16.9734 67.4374 16.1156 67.7571 15.228 67.7571C11.3039 67.7571 0.337891 67.7571 0.337891 67.7571V32.0023C0.337891 20.5973 7.52538 10.8579 17.6135 7.07025C21.3325 5.68877 24.5591 3.2365 26.8856 0.0229552C26.9171 0.0116269 26.9256 0 26.9256 0C29.2629 3.22827 32.5073 5.68849 36.2462 7.06856C46.3685 10.8242 53.5807 20.5775 53.5807 32.0023V67.7571H38.6231Z" fill="url(#paint0_linear_78_5)"/>
<path fill-rule="evenodd" clip-rule="evenodd" d="M18.0517 24.2692C19.4256 27.8481 22.8962 30.391 26.956 30.391C31.0161 30.391 34.4865 27.8481 35.8603 24.2692L35.8926 24.1845C36.2789 25.2205 36.4901 26.342 36.4901 27.5122C36.4901 32.7742 32.218 37.0463 26.956 37.0463C21.694 37.0463 17.4219 32.7742 17.4219 27.5122C17.4219 26.342 17.6331 25.2205 18.0197 24.1845L18.0517 24.2692Z" fill="url(#paint1_linear_78_5)"/>
<path d="M92.1758 48.32C90.5545 48.32 88.9332 48.1067 87.3118 47.68C85.7118 47.2747 84.1545 46.6027 82.6398 45.664C81.1465 44.7253 79.7492 43.4667 78.4478 41.888C76.9758 41.4187 75.6958 40.672 74.6078 39.648C73.5198 38.624 72.6772 37.3973 72.0798 35.968C71.5038 34.5173 71.2158 32.928 71.2158 31.2C71.2158 29.088 71.6532 27.1893 72.5278 25.504C73.4025 23.8187 74.6292 22.4853 76.2078 21.504C77.8078 20.5013 79.6638 20 81.7758 20C83.9092 20 85.7545 20.5013 87.3118 21.504C88.8905 22.4853 90.1172 23.8187 90.9918 25.504C91.8665 27.1893 92.3038 29.088 92.3038 31.2C92.3038 32.9707 91.9945 34.592 91.3758 36.064C90.7785 37.536 89.9145 38.784 88.7838 39.808C87.6745 40.832 86.3518 41.5573 84.8158 41.984C85.0932 42.752 85.4985 43.4667 86.0318 44.128C86.5865 44.8107 87.2052 45.3973 87.8878 45.888C88.5918 46.4 89.3172 46.7947 90.0638 47.072C90.8105 47.3493 91.5145 47.488 92.1758 47.488V48.32ZM81.7758 40.96C83.0772 40.96 84.1758 40.5867 85.0718 39.84C85.9892 39.072 86.6825 37.9627 87.1518 36.512C87.6425 35.04 87.8878 33.2693 87.8878 31.2C87.8878 29.1093 87.6425 27.3387 87.1518 25.888C86.6825 24.4373 85.9892 23.3387 85.0718 22.592C84.1758 21.824 83.0772 21.44 81.7758 21.44C80.4958 21.44 79.3972 21.824 78.4798 22.592C77.5838 23.3387 76.8905 24.4373 76.3998 25.888C75.9305 27.3387 75.6958 29.1093 75.6958 31.2C75.6958 33.2693 75.9305 35.04 76.3998 36.512C76.8905 37.9627 77.5838 39.072 78.4798 39.84C79.3972 40.5867 80.4958 40.96 81.7758 40.96Z" fill="black"/>
<path d="M101.691 42.08C100.368 42.08 99.2591 41.8773 98.3631 41.472C97.4884 41.0667 96.8377 40.4267 96.4111 39.552C95.9844 38.6773 95.7711 37.5573 95.7711 36.192V30.88C95.7711 29.92 95.6324 29.152 95.3551 28.576C95.0991 27.9787 94.4911 27.68 93.5311 27.68H93.2111V26.72H97.0511C97.7977 26.72 98.3737 26.848 98.7791 27.104C99.2057 27.36 99.5044 27.7867 99.6751 28.384C99.8457 28.9813 99.9311 29.8133 99.9311 30.88V36.224C99.9311 37.3333 100.038 38.208 100.251 38.848C100.464 39.488 100.774 39.9467 101.179 40.224C101.584 40.5013 102.075 40.64 102.651 40.64C103.163 40.64 103.611 40.5227 103.995 40.288C104.379 40.0533 104.699 39.776 104.955 39.456C105.211 39.1147 105.403 38.816 105.531 38.56V26.72H109.691V41.76H106.971L105.851 40.32H105.691C105.286 40.768 104.752 41.1733 104.091 41.536C103.43 41.8987 102.63 42.08 101.691 42.08Z" fill="black"/>
<path d="M114.185 41.76V30.88C114.185 29.92 114.057 29.152 113.801 28.576C113.545 27.9787 112.937 27.68 111.977 27.68H111.657V26.72H114.825C115.55 26.72 116.115 26.816 116.521 27.008C116.947 27.1787 117.278 27.4773 117.513 27.904C117.897 27.5627 118.419 27.232 119.081 26.912C119.763 26.5707 120.585 26.4 121.545 26.4C122.014 26.4 122.441 26.4533 122.825 26.56C123.209 26.6667 123.539 26.8267 123.817 27.04C124.179 27.296 124.446 27.6053 124.617 27.968C124.809 28.3307 124.905 28.5013 124.905 28.48L123.273 29.728C123.081 29.4507 122.793 29.1733 122.409 28.896C122.046 28.6187 121.598 28.48 121.065 28.48C120.382 28.48 119.806 28.576 119.337 28.768C118.867 28.96 118.494 29.1947 118.217 29.472C118.259 29.856 118.291 30.1653 118.313 30.4C118.334 30.6347 118.345 30.8373 118.345 31.008V41.76H114.185Z" fill="black"/>
<path d="M131.368 42.08C130.472 42.08 129.682 41.9733 129 41.76C128.338 41.5467 127.773 41.2587 127.304 40.896C126.856 40.512 126.514 40.0533 126.28 39.52C126.045 38.9867 125.928 38.4 125.928 37.76C125.928 36.736 126.162 35.872 126.632 35.168C127.122 34.4427 127.997 33.8987 129.256 33.536C130.514 33.152 132.285 32.96 134.568 32.96H135.048C135.048 31.68 134.93 30.6667 134.696 29.92C134.461 29.1733 134.109 28.64 133.64 28.32C133.192 28 132.648 27.84 132.008 27.84C131.282 27.84 130.632 28.0213 130.056 28.384C129.48 28.7467 129.064 29.5253 128.808 30.72H127.048C127.048 30.1653 127.08 29.6 127.144 29.024C127.229 28.448 127.464 27.9467 127.848 27.52C128.232 27.0933 128.861 26.8053 129.736 26.656C130.632 26.4853 131.602 26.4 132.648 26.4C133.693 26.4 134.621 26.5387 135.432 26.816C136.242 27.0933 136.925 27.5093 137.48 28.064C138.056 28.6187 138.482 29.3227 138.76 30.176C139.058 31.008 139.208 31.9893 139.208 33.12V41.76H136.488L135.368 40.32H135.208C134.93 40.768 134.461 41.1733 133.8 41.536C133.138 41.8987 132.328 42.08 131.368 42.08ZM132.328 40.48C133.032 40.48 133.618 40.2453 134.088 39.776C134.557 39.3067 134.877 38.848 135.048 38.4V34.4H134.568C133.032 34.4 131.922 34.6773 131.24 35.232C130.578 35.7867 130.248 36.6293 130.248 37.76C130.248 38.656 130.429 39.3387 130.792 39.808C131.176 40.256 131.688 40.48 132.328 40.48Z" fill="black"/>
<path d="M143.435 41.76V30.88C143.435 29.92 143.307 29.152 143.051 28.576C142.795 27.9787 142.187 27.68 141.227 27.68H140.907V26.72H144.075C144.8 26.72 145.365 26.816 145.771 27.008C146.197 27.1787 146.528 27.4773 146.763 27.904C147.147 27.5413 147.691 27.2 148.395 26.88C149.12 26.56 150.133 26.4 151.435 26.4C152.779 26.4 153.899 26.6027 154.795 27.008C155.691 27.4133 156.363 28.0533 156.811 28.928C157.28 29.7813 157.515 30.9013 157.515 32.288V41.76H153.355V32.256C153.355 31.2107 153.216 30.3787 152.939 29.76C152.683 29.1413 152.331 28.6933 151.883 28.416C151.435 28.1387 150.912 28 150.315 28C149.717 28 149.184 28.0747 148.715 28.224C148.267 28.3733 147.893 28.5653 147.595 28.8V41.76H143.435Z" fill="black"/>
<path d="M170.321 41.76V24.8C170.321 23.84 170.182 23.072 169.905 22.496C169.649 21.8987 169.041 21.6 168.081 21.6H167.761V20.64H181.169C181.916 20.64 182.481 20.768 182.865 21.024C183.249 21.2587 183.516 21.5787 183.665 21.984C183.814 22.368 183.889 22.7733 183.889 23.2V25.92H182.929C182.929 24.5333 182.577 23.552 181.873 22.976C181.19 22.3787 180.209 22.08 178.929 22.08H174.481V30.24H181.521V31.68H174.481V41.76H170.321Z" fill="black"/>
<path d="M187.059 41.76V30.88C187.059 29.92 186.92 29.152 186.643 28.576C186.387 27.9787 185.779 27.68 184.819 27.68H184.499V26.72H188.339C189.086 26.72 189.662 26.848 190.067 27.104C190.494 27.36 190.792 27.7867 190.963 28.384C191.134 28.9813 191.219 29.8133 191.219 30.88V41.76H187.059ZM189.139 24.992C188.328 24.992 187.72 24.7467 187.315 24.256C186.931 23.7653 186.739 23.2 186.739 22.56C186.739 22.0053 186.91 21.568 187.251 21.248C187.592 20.928 188.008 20.768 188.499 20.768C189.31 20.768 189.907 21.0133 190.291 21.504C190.696 21.9947 190.899 22.56 190.899 23.2C190.899 23.7547 190.728 24.192 190.387 24.512C190.046 24.832 189.63 24.992 189.139 24.992Z" fill="black"/>
<path d="M195.622 41.76V30.88C195.622 29.92 195.494 29.152 195.238 28.576C194.982 27.9787 194.374 27.68 193.414 27.68H193.094V26.72H196.262C196.988 26.72 197.553 26.816 197.958 27.008C198.385 27.1787 198.716 27.4773 198.95 27.904C199.334 27.5627 199.857 27.232 200.518 26.912C201.201 26.5707 202.022 26.4 202.982 26.4C203.452 26.4 203.878 26.4533 204.262 26.56C204.646 26.6667 204.977 26.8267 205.254 27.04C205.617 27.296 205.884 27.6053 206.054 27.968C206.246 28.3307 206.342 28.5013 206.342 28.48L204.71 29.728C204.518 29.4507 204.23 29.1733 203.846 28.896C203.484 28.6187 203.036 28.48 202.502 28.48C201.82 28.48 201.244 28.576 200.774 28.768C200.305 28.96 199.932 29.1947 199.654 29.472C199.697 29.856 199.729 30.1653 199.75 30.4C199.772 30.6347 199.782 30.8373 199.782 31.008V41.76H195.622Z" fill="black"/>
<path d="M213.765 42.08C212.443 42.08 211.355 41.9627 210.501 41.728C209.669 41.4933 209.04 41.1733 208.613 40.768C208.229 40.4053 208.005 39.8827 207.941 39.2C207.877 38.5173 207.845 37.7707 207.845 36.96H208.965C209.136 37.984 209.552 38.8587 210.213 39.584C210.875 40.288 211.845 40.64 213.125 40.64C214.32 40.64 215.152 40.4373 215.621 40.032C216.091 39.6053 216.325 39.0827 216.325 38.464C216.325 37.8453 216.048 37.3547 215.493 36.992C214.939 36.608 214.256 36.2347 213.445 35.872L211.781 35.168C210.501 34.6133 209.499 33.984 208.773 33.28C208.048 32.576 207.685 31.7013 207.685 30.656C207.685 29.2693 208.261 28.2133 209.413 27.488C210.565 26.7627 212.016 26.4 213.765 26.4C215.088 26.4 216.165 26.5173 216.997 26.752C217.851 26.9867 218.491 27.3067 218.917 27.712C219.301 28.0747 219.525 28.5973 219.589 29.28C219.653 29.9627 219.685 30.7093 219.685 31.52H218.565C218.395 30.496 217.979 29.632 217.317 28.928C216.656 28.2027 215.685 27.84 214.405 27.84C213.445 27.84 212.752 28.0533 212.325 28.48C211.899 28.8853 211.685 29.3973 211.685 30.016C211.685 30.592 211.888 31.0613 212.293 31.424C212.699 31.7653 213.253 32.0853 213.957 32.384L215.877 33.184C217.349 33.8027 218.459 34.4533 219.205 35.136C219.952 35.7973 220.325 36.6933 220.325 37.824C220.325 39.2107 219.707 40.2667 218.469 40.992C217.232 41.7173 215.664 42.08 213.765 42.08Z" fill="black"/>
<path d="M228.638 42.08C227.187 42.08 226.046 41.6853 225.214 40.896C224.403 40.1067 223.998 38.944 223.998 37.408V28.16H222.078V26.72H223.998V23.84L225.598 21.92H228.158V26.72H231.678V28.16H228.158V37.6C228.158 38.7947 228.297 39.6053 228.574 40.032C228.873 40.4373 229.289 40.64 229.822 40.64C230.377 40.64 230.867 40.544 231.294 40.352C231.721 40.16 232.073 39.968 232.35 39.776L232.798 40.672C232.371 41.056 231.817 41.3867 231.134 41.664C230.451 41.9413 229.619 42.08 228.638 42.08Z" fill="black"/>
<defs>
<linearGradient id="paint0_linear_78_5" x1="9.38548" y1="12.0122" x2="53.5807" y2="67.7571" gradientUnits="userSpaceOnUse">
<stop stop-color="#2CBA4D"/>
<stop offset="1" stop-color="#BDFC16"/>
</linearGradient>
<linearGradient id="paint1_linear_78_5" x1="9.38222" y1="12.0134" x2="53.5774" y2="67.7583" gradientUnits="userSpaceOnUse">
<stop stop-color="#2CBA4D"/>
<stop offset="1" stop-color="#BDFC16"/>
</linearGradient>
</defs>
</svg>
