<?xml version="1.0" encoding="UTF-8" standalone="no"?>
<svg
   xmlns:dc="http://purl.org/dc/elements/1.1/"
   xmlns:cc="http://creativecommons.org/ns#"
   xmlns:rdf="http://www.w3.org/1999/02/22-rdf-syntax-ns#"
   xmlns:svg="http://www.w3.org/2000/svg"
   xmlns="http://www.w3.org/2000/svg"
   xmlns:sodipodi="http://sodipodi.sourceforge.net/DTD/sodipodi-0.dtd"
   xmlns:inkscape="http://www.inkscape.org/namespaces/inkscape"
   width="68"
   height="68"
   viewBox="0 0 68 68"
   version="1.1"
   id="svg38"
   sodipodi:docname="logo - footer.svg"
   style="fill:none"
   inkscape:version="0.92.4 (5da689c313, 2019-01-14)">
  <metadata
     id="metadata42">
    <rdf:RDF>
      <cc:Work
         rdf:about="">
        <dc:format>image/svg+xml</dc:format>
        <dc:type
           rdf:resource="http://purl.org/dc/dcmitype/StillImage" />
        <dc:title></dc:title>
      </cc:Work>
    </rdf:RDF>
  </metadata>
  <sodipodi:namedview
     pagecolor="#ffffff"
     bordercolor="#666666"
     borderopacity="1"
     objecttolerance="10"
     gridtolerance="10"
     guidetolerance="10"
     inkscape:pageopacity="0"
     inkscape:pageshadow="2"
     inkscape:window-width="1366"
     inkscape:window-height="745"
     id="namedview40"
     showgrid="false"
     inkscape:zoom="1.2575107"
     inkscape:cx="8.7474403"
     inkscape:cy="34"
     inkscape:window-x="-8"
     inkscape:window-y="-8"
     inkscape:window-maximized="1"
     inkscape:current-layer="svg38" />
  <g
     id="g851"
     transform="translate(7.0440002)">
    <path
       style="clip-rule:evenodd;fill:url(#paint0_linear_78_5);fill-rule:evenodd"
       inkscape:connector-curvature="0"
       id="path2"
       d="m 38.619804,67.7571 c -0.8875,0 -1.7454,-0.3197 -2.4166,-0.9003 -2.3585,-2.0411 -7.9088,-6.8434 -7.9088,-6.8434 l 4.9776,-4.3067 c 0,0 4.9814,4.3104 6.1538,5.3248 0.1581,0.1365 0.36,0.2119 0.569001,0.2119 1.4254,0 7.0688,0 7.0688,0 V 32.0023 c 0,-9.1747 -6.158,-16.9227 -14.5636,-19.3322 -2.2308,-0.6412 -4.182401,-2.0108 -5.543501,-3.89098 l -5e-4,2.7e-4 c -1.3611,1.88021 -3.313,3.25011 -5.5438,3.89101 -8.4055,2.4092 -14.5638695,10.1572 -14.5638695,19.3319 v 29.2411 h 7.0016695 c 0.2088,0 0.411,-0.0754 0.5687,-0.2119 1.32,-1.1422 7.5262,-6.5123 7.5262,-6.5123 l -8.4845,-7.3413 c -1.1283,-0.9765 -1.8228,-2.3614 -1.9304,-3.8496 -0.1965,-2.7219 -0.4956,-6.8632 -0.4956,-6.8632 l 15.8879,13.7474 15.8881,-13.7474 c 0,0 -0.299,4.1413 -0.4959,6.8632 -0.1073,1.4882 -0.8017,2.8731 -1.9303,3.8496 -4.9419,4.2762 -18.8261,16.2898 -22.7429,19.6789 -0.6712,0.5806 -1.529,0.9003 -2.4166,0.9003 -3.9241,0 -14.8901085,0 -14.8901085,0 V 32.0023 c 0,-11.405 7.187489,-21.1444 17.2756085,-24.93205 3.719,-1.38148 6.9456,-3.83375 9.2721,-7.0472948 C 26.913804,0.0116269 26.922304,0 26.922304,0 c 2.3373,3.22827 5.5817,5.68849 9.3206,7.06856 10.1223,3.75564 17.3345,13.50894 17.3345,24.93374 v 35.7548 z" />
    <path
       style="clip-rule:evenodd;fill:url(#paint1_linear_78_5);fill-rule:evenodd"
       inkscape:connector-curvature="0"
       id="path4"
       d="m 18.0517,24.2692 c 1.3739,3.5789 4.8445,6.1218 8.9043,6.1218 4.0601,0 7.5305,-2.5429 8.9043,-6.1218 l 0.0323,-0.0847 c 0.3863,1.036 0.5975,2.1575 0.5975,3.3277 0,5.262 -4.2721,9.5341 -9.5341,9.5341 -5.262,0 -9.5341,-4.2721 -9.5341,-9.5341 0,-1.1702 0.2112,-2.2917 0.5978,-3.3277 z" />
  </g>
  <defs
     id="defs36">
    <linearGradient
       id="paint0_linear_78_5"
       x1="9.3854799"
       y1="12.0122"
       x2="53.5807"
       y2="67.757103"
       gradientUnits="userSpaceOnUse"
       gradientTransform="translate(-0.0032955)">
      <stop
         stop-color="#2CBA4D"
         id="stop26" />
      <stop
         offset="1"
         stop-color="#BDFC16"
         id="stop28" />
    </linearGradient>
    <linearGradient
       id="paint1_linear_78_5"
       x1="9.3822203"
       y1="12.0134"
       x2="53.5774"
       y2="67.758301"
       gradientUnits="userSpaceOnUse">
      <stop
         stop-color="#2CBA4D"
         id="stop31" />
      <stop
         offset="1"
         stop-color="#BDFC16"
         id="stop33" />
    </linearGradient>
  </defs>
</svg>
